# xmcd CD database file
#
# Track frame offsets:
#	150
#	20630
#	38910
#	56935
#	71582
#	85947
#
# Disc length: 1403 seconds
#
# Revision: 0
# Processed by: cddbd v1.5PL3 Copyright (c) Steve Scherf et al.
# Submitted via: CDex 1.50beta9
#
DISCID=50057906
DTITLE=レミオロメン - フェスタ
DYEAR=2003
DGENRE=Rock
TTITLE0=フェスタ
TTITLE1=まめ電球
TTITLE2=波
TTITLE3=すきま風
TTITLE4=日めくりカレンダー
TTITLE5=ビールとプリン
EXTD=YEAR: 2003
EXTT0=
EXTT1=
EXTT2=
EXTT3=
EXTT4=
EXTT5=
PLAYORDER=
